<?xml version="1.0" encoding="iso-8859-1"?>
<!-- Generator: Adobe Illustrator 19.0.0, SVG Export Plug-In . SVG Version: 6.00 Build 0)  -->
<svg version="1.1" id="Capa_1" xmlns="http://www.w3.org/2000/svg" xmlns:xlink="http://www.w3.org/1999/xlink" x="0px" y="0px"
	 viewBox="0 0 427.701 427.701" style="enable-background:new 0 0 427.701 427.701;" xml:space="preserve">
<g>
	<path style="fill:#00EFD1;" d="M419.168,381.2c10.532,9.86,11.076,26.391,1.216,36.923c-0.392,0.419-0.797,0.824-1.216,1.216
		c-4.784,5.349-11.631,8.392-18.808,8.359c-7.344,0.116-14.385-2.929-19.331-8.359L289.6,328.433
		c7.327-5.483,14.306-11.415,20.898-17.763c6.299-6.304,12.066-13.119,17.241-20.376l2.09,1.567L419.168,381.2z"/>
	<path style="fill:#00ACEA;" d="M310.498,53.102c64.047,63.722,71.4,164.877,17.241,237.192
		c-5.175,7.256-10.941,14.071-17.241,20.376c-6.591,6.348-13.571,12.281-20.898,17.763c-80.975,59.377-194.753,41.868-254.13-39.107
		S-6.397,94.572,74.578,35.196C146.877-17.819,247.029-10.217,310.498,53.102z M282.286,282.457
		c55.448-55.544,55.37-145.521-0.175-200.968S136.591,26.12,81.143,81.664c-55.38,55.476-55.38,145.318,0,200.794
		C136.778,337.782,226.651,337.782,282.286,282.457z"/>
	<path style="fill:#D4E1F4;" d="M282.286,81.315c55.448,55.544,55.37,145.521-0.175,200.968s-145.521,55.37-200.968-0.174
		c-55.38-55.476-55.38-145.318,0-200.794C136.778,25.99,226.651,25.99,282.286,81.315z"/>
</g>
<g>
</g>
<g>
</g>
<g>
</g>
<g>
</g>
<g>
</g>
<g>
</g>
<g>
</g>
<g>
</g>
<g>
</g>
<g>
</g>
<g>
</g>
<g>
</g>
<g>
</g>
<g>
</g>
<g>
</g>
</svg>
